<svg width="154" height="52" viewBox="0 0 154 52" fill="none" xmlns="http://www.w3.org/2000/svg">
<path d="M88.6391 51.513C89.3261 51.8321 90.0746 51.9973 90.8321 51.997L90.8351 51.989C91.5386 51.988 92.2348 51.845 92.8817 51.5685C93.5287 51.292 94.1131 50.8878 94.6001 50.38C97.2773 47.3477 99.6894 44.0915 101.81 40.647L101.954 40.425L102.011 40.339L102.023 40.32L102.034 40.301C102.46 39.4289 103.12 38.6924 103.941 38.1741C104.761 37.6558 105.71 37.376 106.68 37.366H106.738L106.795 37.358L129.001 34.308L129.057 34.3L129.112 34.286C129.58 34.1596 130.061 34.0924 130.545 34.086C132.017 34.1378 133.407 34.772 134.411 35.849L134.426 35.863L134.441 35.876C137.509 38.7122 140.815 41.28 144.322 43.551C145.132 44.0239 146.052 44.2741 146.99 44.276C148.231 44.2747 149.43 43.8308 150.372 43.024C152.422 41.2407 153.684 38.719 153.882 36.009C154.097 32.5101 153.591 29.0044 152.396 25.709C150.237 18.934 146.107 11.234 141.969 3.934C141.761 3.563 141.549 3.192 141.341 2.825L141.141 2.46899V2.462V2.45499L141.113 2.407L140.944 2.12099L140.644 1.995L140.596 1.975L138.996 1.297L138.931 1.113L138.337 1.031L138.228 1.016H138.212L130.197 0.0479965C129.934 0.0165328 129.669 0.000508947 129.403 0C128.313 0.00426213 127.241 0.274905 126.279 0.788368C125.318 1.30183 124.497 2.04255 123.887 2.946L121.223 6.846C120.979 7.20767 120.661 7.5143 120.291 7.74625C119.921 7.9782 119.507 8.13036 119.075 8.193L114.19 8.863L109.305 9.534C109.168 9.55303 109.029 9.56271 108.89 9.563C108.148 9.5593 107.431 9.29529 106.864 8.817L103.237 5.77599C102.025 4.75618 100.493 4.19451 98.9081 4.189C98.0397 4.18678 97.1795 4.35672 96.3771 4.689L88.9261 7.783L88.9081 7.79L88.8901 7.798L88.8681 7.808L88.7821 7.848L88.7041 7.905L88.6851 7.918L88.6661 7.931L88.6481 7.946L86.8901 9.346L86.8511 9.376L86.5771 9.589L86.4991 9.931L86.4851 9.985L86.2851 10.805L86.1111 11.516C86.0495 11.7698 85.9887 12.0258 85.9274 12.2839L85.8931 12.428L85.8261 12.711H76.3681L76.2591 13.571L75.8251 13.138L75.7521 13.066L75.7041 13.018L75.4171 12.731H68.6611L68.3931 13.302L68.3481 13.402V13.408L68.2821 13.55L68.1251 13.887C67.9951 14.168 67.8601 14.467 67.7301 14.76L66.1021 13.143L66.0301 13.071L65.9811 13.022L65.6931 12.735H59.1931L59.0121 13.503L58.9811 13.633L58.9371 13.823L57.9731 17.902L57.5551 15.812L57.5431 15.752L57.5371 15.718L57.4821 15.385L57.2381 15.154L57.2151 15.132L57.1761 15.091H57.1701V15.086L55.2021 13.129L55.1351 13.062L55.0931 13.019L54.8031 12.719H47.8731L47.6071 13.297L47.5621 13.397L47.4961 13.54L46.4101 15.884L46.1581 15.639L46.0921 15.575L45.9921 15.475L44.0851 13.575L44.0151 13.506L43.9321 13.452L43.6321 13.252L43.5321 13.184L43.4171 13.144C42.6882 12.889 41.9369 12.7035 41.1731 12.59C40.421 12.4745 39.6611 12.4163 38.9001 12.416C37.7464 12.4039 36.5969 12.5561 35.4861 12.868C34.5188 13.1428 33.6013 13.5698 32.7681 14.133C31.9945 14.661 31.3179 15.3187 30.7681 16.077C30.7131 16.154 30.6591 16.231 30.6061 16.309L28.6481 14.365L28.6231 14.341L28.5971 14.319C27.9519 13.8106 27.2487 13.3806 26.5021 13.038C25.3958 12.6195 24.2198 12.4158 23.0371 12.438C21.6205 12.4145 20.2161 12.7026 18.9231 13.282C18.0675 13.6751 17.2813 14.2043 16.5951 14.849L15.3141 13.575L15.2451 13.506L15.1631 13.451L14.8631 13.251L14.7631 13.183L14.6481 13.143C13.9191 12.8884 13.1678 12.7029 12.4041 12.589C11.6526 12.4735 10.8934 12.4154 10.1331 12.415C8.97977 12.403 7.83059 12.5552 6.72012 12.867C5.75151 13.141 4.83291 13.568 3.99912 14.132C3.22551 14.6596 2.5489 15.317 1.99912 16.075C1.50344 16.7625 1.09842 17.511 0.794099 18.302C0.500974 19.0652 0.292416 19.8583 0.17212 20.667C0.059114 21.4093 0.00162417 22.1591 0.000122869 22.91C-0.00424711 23.8285 0.107967 24.7438 0.334107 25.634C0.581666 26.616 1.05874 27.5253 1.72611 28.287C1.81811 28.393 1.96612 28.543 2.07712 28.652V28.657L3.92111 30.427L3.9371 30.442L3.95313 30.456C4.55531 30.9976 5.24733 31.4301 5.99811 31.734C7.17779 32.1704 8.4297 32.3784 9.6871 32.347C10.5888 32.342 11.4889 32.2675 12.3791 32.124C13.3672 31.968 14.3398 31.7264 15.2861 31.402L15.6281 31.284L15.7731 31.235H15.7801H15.7871L15.8871 31.2L16.4601 31L16.5391 30.39L16.5531 30.29V30.28L16.5711 30.131L16.6501 29.494L17.5561 30.375L17.5671 30.385L17.5781 30.395C18.2354 31.0068 19.0058 31.4844 19.8461 31.801C20.9367 32.1895 22.0885 32.3782 23.2461 32.358C24.62 32.3782 25.9828 32.1094 27.2461 31.569C28.4082 31.0635 29.4445 30.3079 30.2811 29.356C30.4797 29.1301 30.6654 28.893 30.8371 28.646L30.9171 28.724L31.6801 29.48V29.711L32.0621 30.003L32.1271 30.053H32.1331H32.1391L32.2391 30.125L32.9991 30.693C33.5358 31.1259 34.1332 31.4777 34.7721 31.737C35.9521 32.1735 37.2043 32.3816 38.4621 32.35C39.3638 32.345 40.2639 32.2705 41.1541 32.127C41.8345 32.0198 42.5077 31.8715 43.1701 31.683L43.2091 31.722L43.2821 31.795L43.3301 31.844L43.6181 32.13H49.6961L49.9261 31.456L49.9641 31.343V31.334V31.324L50.0171 31.156L50.1471 30.756V30.751C50.1682 30.6851 50.2495 30.4969 50.2946 30.3926L50.3061 30.366L50.7601 29.319H50.9601L50.9771 29.43L51.2121 29.67L51.2491 29.706L51.3061 29.763L53.2841 31.73L53.3561 31.801L53.4041 31.85L53.6921 32.137H64.6881L64.8391 31.323L64.8641 31.192L64.9031 30.992L65.0481 30.227L65.0781 30.256L65.1521 30.329V30.335L65.1581 30.34L65.2071 30.388L65.4931 30.664H69.9931L71.0661 31.732L71.1411 31.806L71.1891 31.854L71.4771 32.14H77.8421H77.8511L77.9161 32.148H82.1851C82.0851 33.202 82.0211 34.179 81.9851 35.111V35.201L81.9561 35.279L81.9761 35.5C81.9351 36.735 81.9471 37.863 82.0121 38.946C82.0141 39.01 82.0211 39.063 82.0211 39.116V39.122C82.0949 41.8313 82.7392 44.4946 83.9121 46.938C84.9252 48.9536 86.5915 50.5663 88.6391 51.513Z" fill="#100A26"/>
<path d="M10.1423 14.9079L10.1423 14.9079L10.1504 14.9079C10.7729 14.9089 11.3945 14.9571 12.0098 15.0521L12.0123 15.0525C12.4453 15.1171 12.8736 15.2088 13.2948 15.327L12.8156 17.1579C12.4555 17.0922 12.0892 17.038 11.7142 16.9945C11.2379 16.9364 10.7587 16.9052 10.2788 16.901C9.61296 16.8915 8.95096 17.0034 8.32516 17.2311L8.32515 17.2311L8.32031 17.2329C7.71902 17.4587 7.18547 17.8346 6.77047 18.3249L6.77039 18.3248L6.76385 18.3329C6.32218 18.8771 6.00245 19.5098 5.82619 20.1882C5.60834 21.0255 5.50527 21.8886 5.51979 22.7536C5.46053 23.6194 5.69648 24.4801 6.18952 25.1948L6.21016 25.2248L6.23492 25.2514C6.52011 25.5581 6.87156 25.7958 7.26249 25.9461C7.64714 26.0941 8.06002 26.1537 8.47065 26.1207C8.69841 26.118 8.92585 26.103 9.15201 26.0759C9.41221 26.0497 9.65544 26.0147 9.88484 25.9695L10.2405 25.8994L10.2844 25.5396L10.7717 21.5509H13.2334L12.4997 27.4766C11.7854 27.7066 11.0542 27.8807 10.3126 27.997L10.3107 27.9973C9.54591 28.1203 8.77289 28.1851 7.9983 28.191L7.9983 28.1908L7.98665 28.1912C7.04722 28.2202 6.11077 28.0714 5.22661 27.7526C4.59447 27.5158 4.0275 27.1324 3.57222 26.6341C3.16585 26.1676 2.87627 25.6112 2.72741 25.0106L2.72676 25.0081C2.55277 24.3219 2.4672 23.6163 2.4721 22.9084L2.4721 22.9063C2.47377 22.2798 2.5217 21.6542 2.61549 21.0348L2.61572 21.0332C2.70885 20.4046 2.87078 19.7881 3.09863 19.1948C3.32691 18.6051 3.62958 18.047 3.99928 17.5339C4.38064 17.0082 4.85024 16.5525 5.38723 16.1871C6.00395 15.7726 6.68216 15.4578 7.39689 15.2544C8.29077 15.0083 9.21533 14.8916 10.1423 14.9079Z" fill="#FEFEFE" stroke="black"/>
<path d="M23.0163 14.9278L23.0281 14.9281L23.04 14.9278C23.9056 14.9072 24.7673 15.0524 25.5784 15.3556C26.2202 15.601 26.7959 15.9928 27.2598 16.4998C27.7077 17.0037 28.0416 17.5983 28.2387 18.2432C28.4644 18.9894 28.5748 19.7658 28.5661 20.5454L28.566 20.5454L28.5661 20.5553C28.5754 21.5988 28.4148 22.6368 28.0908 23.6286L28.0907 23.6291C27.8027 24.5131 27.3424 25.3313 26.7363 26.0363C26.1387 26.7123 25.3992 27.248 24.5706 27.6051C23.6244 28.0062 22.6043 28.2031 21.5769 28.183L21.5663 28.1828L21.5557 28.183C20.6977 28.2026 19.8432 28.0668 19.0334 27.7824C18.4036 27.5594 17.8346 27.1923 17.3719 26.7104C16.909 26.2284 16.5651 25.6448 16.3678 25.0063L16.3678 25.0063L16.3666 25.0023C16.1347 24.2734 16.0208 23.5122 16.0291 22.7473L16.0291 22.7473L16.0291 22.739C16.023 21.7009 16.1744 20.6679 16.4782 19.6752L16.4782 19.6752L16.479 19.6726C16.7502 18.7688 17.1946 17.9264 17.7873 17.1923C18.3732 16.4836 19.113 15.9179 19.9505 15.5382C20.915 15.1114 21.9619 14.9029 23.0163 14.9278Z" fill="#FEFEFE" stroke="black"/>
<path d="M38.9174 14.9078L38.9174 14.9079L38.9254 14.9079C39.5479 14.9088 40.1695 14.957 40.7848 15.0521L40.7873 15.0524C41.2202 15.117 41.6484 15.2087 42.0695 15.3268L41.5889 17.1579C41.2288 17.0922 40.8626 17.038 40.4883 16.9944C40.0119 16.9363 39.5327 16.9051 39.0528 16.9009C38.387 16.8915 37.7249 17.0033 37.0991 17.231L37.0991 17.231L37.0943 17.2328C36.493 17.4587 35.9595 17.8346 35.5445 18.3249L35.5444 18.3248L35.5379 18.3328C35.0962 18.8771 34.7764 19.5098 34.6002 20.1882C34.3824 21.0254 34.2793 21.8883 34.2938 22.7532C34.2335 23.6195 34.4697 24.4808 34.9639 25.1953L34.9845 25.2251L35.0091 25.2515C35.2942 25.5579 35.6455 25.7953 36.0361 25.9456C36.4205 26.0935 36.8331 26.1533 37.2435 26.1207C37.472 26.1179 37.7002 26.103 37.9271 26.0759C38.1848 26.0497 38.4301 26.0148 38.6598 25.9695L39.0155 25.8993L39.0594 25.5395L39.5468 21.5509H42.0114L41.2776 27.4766C40.5634 27.7066 39.8322 27.8806 39.0906 27.9969L39.0887 27.9973C38.3246 28.1203 37.5522 28.185 36.7783 28.1909L36.7783 28.1908L36.7666 28.1912C35.8272 28.2202 34.8907 28.0714 34.0066 27.7526C33.3743 27.5157 32.8073 27.1323 32.352 26.6337C31.9443 26.1674 31.653 25.6109 31.5021 25.0101L31.5019 25.0094C31.3284 24.3227 31.2425 23.6168 31.2461 22.9085L31.2461 22.9075C31.2481 22.281 31.2964 21.6554 31.3904 21.036L31.3907 21.0343C31.484 20.4055 31.646 19.7889 31.8738 19.1955C32.1012 18.6056 32.4039 18.0475 32.7742 17.535C33.1553 17.0088 33.6253 16.553 34.163 16.1882C34.7797 15.7734 35.458 15.4586 36.173 15.2554C37.0664 15.0088 37.9907 14.8917 38.9174 14.9078Z" fill="#FEFEFE" stroke="black"/>
<path d="M52.8929 25.5794L52.8259 25.1579H52.3991H47.7881H47.4624L47.3307 25.4559C47.2766 25.5784 47.1916 25.7739 47.0786 26.0412C47.0146 26.1927 46.9488 26.344 46.88 26.5024C46.8278 26.6225 46.7738 26.7466 46.7176 26.8779C46.5926 27.1694 46.4735 27.4404 46.3585 27.7013C46.3158 27.7983 46.2772 27.888 46.2431 27.9699H43.5407L49.4516 15.2079H53.559L56.1045 27.9699H53.2729L52.8929 25.5794ZM51.0996 16.9202L50.7599 16.9314L50.6454 17.2514L49.6079 20.1506L48.4492 22.9071L48.1576 23.6009H48.9101H51.9591H52.5386L52.4537 23.0277L52.0332 20.1869L51.7343 17.3633L51.6854 16.9008L51.2206 16.9162L51.0996 16.9202Z" fill="#FEFEFE" stroke="black"/>
<path d="M66.6602 23.289L66.9851 23.285L67.1134 22.9866C67.1584 22.8821 67.2224 22.7215 67.2968 22.5059L67.5565 21.7815C67.5565 21.7814 67.5566 21.7813 67.5566 21.7812C67.6567 21.5034 67.7665 21.2028 67.8861 20.8793C68.0032 20.5625 68.1337 20.234 68.2776 19.8938L68.2804 19.8873L68.283 19.8807C68.4419 19.4731 68.6139 19.0478 68.799 18.6049C68.9333 18.2878 69.0652 17.9722 69.1952 17.6613C69.2476 17.5361 69.2996 17.4117 69.3513 17.2882C69.532 16.857 69.7069 16.4436 69.8794 16.0479C70.0042 15.7617 70.1254 15.4895 70.2425 15.231H74.0855L73.9177 27.974H71.1465L71.3615 23.6317L71.3615 23.6317L71.3617 23.6284L71.5427 19.3994L71.565 18.878H71.0431H70.9431H70.5884L70.4712 19.2128C70.4621 19.2389 70.4238 19.3387 70.3505 19.5173L70.0597 20.2249L70.0592 20.2261C69.9416 20.5142 69.8026 20.8377 69.6432 21.2013L69.626 21.2404C69.4716 21.5926 69.3093 21.963 69.1432 22.3483C68.8236 23.0658 68.4837 23.818 68.1235 24.6049C67.8139 25.2812 67.5195 25.9119 67.2402 26.497H65.0183C65.0151 26.4806 65.0119 26.4642 65.0089 26.4477L65.009 26.4477L65.0067 26.4366C64.959 26.2061 64.8977 25.93 64.8232 25.6089C64.7504 25.2955 64.6744 24.9444 64.5951 24.5552L64.595 24.555C64.5141 24.1584 64.426 23.7555 64.3308 23.3513C64.2376 22.9558 64.1484 22.5584 64.0632 22.1571C63.977 21.7511 63.8958 21.3752 63.8216 21.0354C63.7675 20.7875 63.7194 20.5632 63.6762 20.3617C63.6605 20.2884 63.6454 20.2181 63.6309 20.1508C63.5772 19.9009 63.5476 19.7413 63.5373 19.6678L63.4771 19.237H63.0421H62.9421H62.5146L62.4482 19.6593C62.3818 20.0819 62.3184 20.4724 62.2581 20.8311C62.1975 21.1911 62.1276 21.6022 62.0483 22.0645L62.0483 22.0645C61.9687 22.5288 61.8821 23.0185 61.7885 23.5336L60.9443 27.972H58.1401L61.1517 15.229H64.4573C64.4724 15.2996 64.4891 15.3775 64.5073 15.4623C64.5802 15.8005 64.6678 16.2109 64.7674 16.6948C64.8675 17.1814 64.9777 17.7125 65.099 18.2838C65.2194 18.8508 65.3319 19.4023 65.4386 19.9337C65.5058 20.2808 65.5721 20.6135 65.6395 20.9386C65.7057 21.2577 65.7609 21.5423 65.808 21.8045C65.8556 22.0693 65.8943 22.2946 65.9272 22.4879C65.96 22.6805 65.9846 22.8173 66.001 22.8948L66.0861 23.296L66.4962 23.291L66.6602 23.289Z" fill="#FEFEFE" stroke="black"/>
<path d="M80.6331 26.259H86.5268L86.3255 27.97L77.0041 27.9709L78.5676 15.209H87.5865L87.3856 16.882H81.6541H81.2107L81.1577 17.3222L80.8387 19.9732L80.7713 20.533H81.3351H85.9839L85.8014 22.086H81.0331H80.5922L80.537 22.5235L80.137 25.6965L80.0661 26.259H80.6331Z" fill="#FEFEFE" stroke="black"/>
<g opacity="0.3">
<g opacity="0.3">
<path opacity="0.3" d="M25.9301 20.5359L25.6621 22.4359C25.6427 22.5525 25.5834 22.6587 25.4944 22.7364C25.4054 22.8141 25.2922 22.8585 25.1741 22.8619H23.3741L23.1201 24.6559C23.1009 24.7726 23.0417 24.8789 22.9526 24.9566C22.8636 25.0343 22.7502 25.0786 22.6321 25.0819H20.7321C20.6847 25.0834 20.6374 25.0755 20.5931 25.0587C20.5487 25.0419 20.5081 25.0165 20.4735 24.984C20.439 24.9515 20.4112 24.9125 20.3917 24.8693C20.3723 24.826 20.3615 24.7794 20.3601 24.7319C20.3576 24.7067 20.3576 24.6812 20.3601 24.6559L20.6141 22.8619H18.8141C18.7667 22.8634 18.7194 22.8555 18.6751 22.8387C18.6307 22.8219 18.5901 22.7965 18.5555 22.764C18.521 22.7315 18.4932 22.6925 18.4737 22.6493C18.4543 22.606 18.4435 22.5594 18.4421 22.5119C18.4396 22.4867 18.4396 22.4612 18.4421 22.4359L18.7101 20.5359C18.7289 20.4195 18.7877 20.3132 18.8764 20.2355C18.9651 20.1577 19.0782 20.1133 19.1961 20.1099H20.9961L21.2491 18.3159C21.2683 18.1993 21.3275 18.093 21.4166 18.0153C21.5056 17.9376 21.6189 17.8932 21.7371 17.8899H23.6371C23.6845 17.8885 23.7317 17.8964 23.7761 17.9132C23.8205 17.93 23.8611 17.9553 23.8956 17.9879C23.9302 18.0204 23.958 18.0593 23.9775 18.1026C23.9969 18.1459 24.0077 18.1925 24.0091 18.2399C24.0116 18.2652 24.0116 18.2907 24.0091 18.3159L23.7551 20.1099H25.5621C25.6094 20.1091 25.6563 20.1177 25.7003 20.135C25.7443 20.1524 25.7844 20.1783 25.8184 20.2111C25.8524 20.244 25.8796 20.2832 25.8984 20.3266C25.9172 20.37 25.9273 20.4167 25.9281 20.4639C25.9312 20.4878 25.9319 20.5119 25.9301 20.5359Z" fill="#0F227A"/>
</g>
</g>
<path d="M25.3881 19.625L25.1201 21.525C25.1009 21.6416 25.0417 21.7479 24.9526 21.8256C24.8636 21.9033 24.7503 21.9477 24.6321 21.951H22.8321L22.5791 23.745C22.5602 23.8618 22.5011 23.9683 22.412 24.0461C22.3229 24.1239 22.2094 24.168 22.0911 24.171H20.1911C20.144 24.1726 20.097 24.1649 20.0528 24.1483C20.0086 24.1317 19.9681 24.1066 19.9337 24.0744C19.8992 24.0421 19.8715 24.0034 19.852 23.9605C19.8325 23.9175 19.8217 23.8711 19.8201 23.824C19.8172 23.7977 19.8172 23.7712 19.8201 23.745L20.0731 21.951H18.2731C18.2258 21.9526 18.1787 21.9448 18.1344 21.9282C18.0901 21.9116 18.0495 21.8864 18.015 21.8541C17.9804 21.8217 17.9526 21.7829 17.9331 21.7399C17.9135 21.6968 17.9027 21.6503 17.9011 21.603C17.8982 21.577 17.8982 21.5509 17.9011 21.525L18.1691 19.625C18.1883 19.5083 18.2476 19.402 18.3366 19.3243C18.4257 19.2466 18.539 19.2023 18.6571 19.199H20.4571L20.7111 17.405C20.7302 17.2883 20.7893 17.1819 20.8784 17.1041C20.9675 17.0263 21.0809 16.9821 21.1991 16.979H23.0991C23.1464 16.9774 23.1935 16.9851 23.2378 17.0017C23.2821 17.0184 23.3227 17.0435 23.3572 17.0759C23.3918 17.1082 23.4196 17.147 23.4392 17.1901C23.4587 17.2332 23.4696 17.2797 23.4711 17.327C23.4741 17.3529 23.4741 17.3791 23.4711 17.405L23.2191 19.199H25.0191C25.0665 19.1974 25.1138 19.2051 25.1582 19.2218C25.2026 19.2385 25.2433 19.2637 25.278 19.2962C25.3126 19.3286 25.3405 19.3675 25.3601 19.4107C25.3797 19.4539 25.3906 19.5006 25.3921 19.548C25.3933 19.5737 25.3919 19.5995 25.3881 19.625Z" fill="#100A26"/>
<path d="M90.8115 25.6815L90.8524 25.6847L90.8933 25.6811C91.0602 25.6667 91.2284 25.6863 91.3875 25.7388C91.5385 25.7886 91.6783 25.8671 91.7995 25.9698C91.8865 26.0686 91.9544 26.1827 91.9997 26.3063C92.0479 26.4378 92.0696 26.5776 92.0636 26.7175L92.0627 26.7376L92.0635 26.7578C92.0704 26.9414 92.0393 27.1243 91.9722 27.2953C91.9071 27.4613 91.8094 27.6125 91.6848 27.74C91.5227 27.8795 91.3349 27.9863 91.132 28.0543C90.9238 28.124 90.7039 28.1516 90.485 28.1354L90.4423 28.1322L90.3997 28.1364C90.2339 28.1525 90.0665 28.1345 89.908 28.0834C89.7577 28.0349 89.6183 27.9577 89.4975 27.8561C89.3321 27.6689 89.2444 27.4252 89.2528 27.1749L89.2533 27.1608L89.253 27.1466C89.2442 26.7628 89.3822 26.3903 89.6385 26.1049C89.7912 25.9568 89.9735 25.8424 90.1734 25.7693C90.3774 25.6947 90.595 25.6648 90.8115 25.6815Z" fill="#FEFEFE" stroke="white"/>
<path d="M96.0878 15.2109H98.9288L97.6169 25.719L97.5468 26.2809H98.1131H104.065L103.865 27.9739H94.5318L96.0878 15.2109Z" fill="#FEFEFE" stroke="white"/>
<path d="M108.721 27.9739H105.899L107.461 15.2109H110.282L108.721 27.9739Z" fill="#FEFEFE" stroke="white"/>
<path d="M117.529 25.6829L117.864 25.6796L117.988 25.3687C118.125 25.0263 118.265 24.646 118.409 24.2284L118.409 24.227L118.84 22.9604C118.84 22.9603 118.84 22.9603 118.84 22.9603C118.988 22.5288 119.131 22.1104 119.271 21.705C119.409 21.3046 119.544 20.9363 119.676 20.5951L119.676 20.5951L119.68 20.5836C119.704 20.5148 119.774 20.3386 119.893 20.0429C120.012 19.7482 120.149 19.4009 120.306 19.0012L120.307 18.9986C120.46 18.6013 120.625 18.1815 120.804 17.739L120.804 17.7386C120.86 17.5998 120.915 17.4623 120.97 17.3265C121.09 17.0307 121.206 16.7431 121.314 16.468C121.386 16.286 121.46 16.1021 121.53 15.9295C121.603 15.7484 121.672 15.5797 121.726 15.4389C121.763 15.3443 121.796 15.2618 121.825 15.19H124.795C124.668 15.4743 124.521 15.801 124.354 16.1703C124.028 16.8945 123.666 17.6989 123.268 18.5835C122.869 19.4665 122.445 20.3964 121.997 21.3735C121.548 22.3522 121.124 23.2841 120.724 24.169C120.325 25.0527 119.96 25.857 119.63 26.5819C119.375 27.142 119.167 27.6066 119.005 27.975H115.009C115.004 27.9489 114.999 27.9223 114.993 27.8954C114.925 27.5634 114.843 27.1677 114.751 26.6938C114.614 25.9861 114.451 25.2085 114.273 24.3581L114.256 24.2727C114.113 23.5892 113.972 22.8793 113.824 22.1381C113.782 21.9228 113.738 21.7049 113.694 21.4842C113.665 21.3355 113.635 21.1879 113.606 21.0413C113.444 20.2246 113.287 19.4399 113.132 18.6877C113.024 18.1644 112.923 17.6717 112.828 17.2058C112.762 16.8828 112.699 16.5727 112.638 16.2743C112.553 15.859 112.479 15.4973 112.417 15.189H115.532C115.563 15.3897 115.6 15.6335 115.644 15.9207C115.724 16.4515 115.805 17.0069 115.885 17.5896C115.91 17.7766 115.935 17.9611 115.96 18.143C116.013 18.5296 116.063 18.9045 116.114 19.2669C116.188 19.7974 116.245 20.1914 116.287 20.4395C116.325 20.662 116.368 20.992 116.413 21.4323C116.435 21.6573 116.461 21.8872 116.486 22.1201L116.487 22.1269C116.512 22.3583 116.538 22.5929 116.563 22.8328C116.613 23.3239 116.663 23.7846 116.716 24.2268C116.748 24.5021 116.77 24.7199 116.789 24.9087C116.802 25.0288 116.813 25.1371 116.824 25.2411L116.875 25.6894L117.326 25.6849L117.529 25.6829Z" fill="#FEFEFE" stroke="white"/>
<path d="M123.94 25.746L122.668 28.594H135.046L136.317 25.746H123.94Z" fill="#28E566"/>
<path d="M128.984 14.694L127.717 17.542H140.093L141.364 14.694H128.984Z" fill="#FF8000"/>
<path d="M125.092 23.048H131.272L132.528 20.236H126.351L125.092 23.048Z" fill="#FEFEFE"/>
</svg>
